<svg width="40" height="40" viewBox="0 0 40 40" fill="none" xmlns="http://www.w3.org/2000/svg">
<path d="M12.6898 7.1064C9.87196 8.65448 7.63294 11.0755 6.30938 14.0055C4.98583 16.9355 4.6493 20.2159 5.3504 23.3536C6.0515 26.4913 7.75233 29.3165 10.1971 31.4044C12.6419 33.4924 15.6985 34.7302 18.9072 34.9316C22.1159 35.1331 25.3033 34.2874 27.9901 32.5217C30.6768 30.7559 32.7177 28.1656 33.8058 25.1403C34.8938 22.115 34.9703 18.8182 34.0236 15.7457C33.077 12.6731 31.1584 9.99103 28.5563 8.10265L25.4175 12.4276C27.0828 13.6362 28.3107 15.3528 28.9166 17.3192C29.5225 19.2856 29.4735 21.3955 28.7772 23.3317C28.0808 25.2679 26.7746 26.9257 25.0551 28.0558C23.3356 29.1859 21.2957 29.7271 19.2421 29.5982C17.1885 29.4693 15.2323 28.6771 13.6676 27.3408C12.103 26.0045 11.0144 24.1964 10.5657 22.1883C10.117 20.1802 10.3324 18.0807 11.1795 16.2055C12.0266 14.3303 13.4595 12.7808 15.2629 11.7901L12.6898 7.1064Z" fill="white"/>
<path d="M26.3251 6.57037C24.5615 5.73984 22.6516 5.26481 20.7044 5.1724C18.7572 5.08 16.8109 5.37203 14.9766 6.03181L16.7853 11.0604C17.9593 10.6381 19.2049 10.4512 20.4511 10.5103C21.6973 10.5695 22.9197 10.8735 24.0484 11.405L26.3251 6.57037Z" fill="#B1C9EF"/>
</svg>
