<svg width="44" height="44" viewBox="0 0 44 44" fill="none" xmlns="http://www.w3.org/2000/svg">
<path d="M16.883 12.9741C14.9106 14.0578 13.3433 15.7525 12.4168 17.8035C11.4903 19.8545 11.2547 22.1508 11.7455 24.3472C12.2362 26.5435 13.4268 28.5212 15.1382 29.9828C16.8495 31.4443 18.9891 32.3108 21.2352 32.4518C23.4813 32.5928 25.7125 32.0008 27.5933 30.7648C29.474 29.5288 30.9026 27.7156 31.6642 25.5979C32.4259 23.4801 32.4794 21.1724 31.8167 19.0216C31.1541 16.8709 29.811 14.9934 27.9896 13.6715L25.7925 16.699C26.9582 17.545 27.8177 18.7466 28.2418 20.1231C28.6659 21.4996 28.6317 22.9765 28.1442 24.3319C27.6568 25.6872 26.7425 26.8477 25.5388 27.6387C24.3351 28.4298 22.9072 28.8087 21.4697 28.7184C20.0321 28.6281 18.6628 28.0736 17.5675 27.1382C16.4723 26.2028 15.7103 24.9371 15.3962 23.5314C15.0821 22.1258 15.2329 20.6561 15.8258 19.3435C16.4188 18.0309 17.4219 16.9462 18.6842 16.2527L16.883 12.9741Z" fill="#222222"/>
<path d="M26.4278 12.5993C25.1933 12.0179 23.8563 11.6854 22.4933 11.6207C21.1303 11.556 19.7678 11.7604 18.4838 12.2223L19.7499 15.7423C20.5717 15.4467 21.4436 15.3158 22.316 15.3572C23.1883 15.3986 24.044 15.6114 24.8341 15.9835L26.4278 12.5993Z" fill="#B1C9EF"/>
</svg>
