<svg width="146" height="40" viewBox="0 0 146 40" fill="none" xmlns="http://www.w3.org/2000/svg">
<path d="M12.6898 7.1064C9.87196 8.65448 7.63294 11.0755 6.30938 14.0055C4.98583 16.9355 4.6493 20.2159 5.3504 23.3536C6.0515 26.4913 7.75233 29.3165 10.1971 31.4044C12.6419 33.4924 15.6985 34.7302 18.9072 34.9316C22.1159 35.1331 25.3033 34.2874 27.9901 32.5217C30.6768 30.7559 32.7177 28.1656 33.8058 25.1403C34.8938 22.115 34.9703 18.8182 34.0236 15.7457C33.077 12.6731 31.1584 9.99103 28.5563 8.10265L25.4175 12.4276C27.0828 13.6362 28.3107 15.3528 28.9166 17.3192C29.5225 19.2856 29.4735 21.3955 28.7772 23.3317C28.0808 25.2679 26.7746 26.9257 25.0551 28.0558C23.3356 29.1859 21.2957 29.7271 19.2421 29.5982C17.1885 29.4693 15.2323 28.6771 13.6676 27.3408C12.103 26.0045 11.0144 24.1964 10.5657 22.1883C10.117 20.1802 10.3324 18.0807 11.1795 16.2055C12.0266 14.3303 13.4595 12.7808 15.2629 11.7901L12.6898 7.1064Z" fill="#222222"/>
<path d="M26.3251 6.57037C24.5615 5.73984 22.6516 5.26481 20.7044 5.1724C18.7572 5.08 16.8109 5.37203 14.9766 6.03181L16.7853 11.0604C17.9593 10.6381 19.2049 10.4512 20.4511 10.5103C21.6973 10.5695 22.9197 10.8735 24.0484 11.405L26.3251 6.57037Z" fill="#B1C9EF"/>
<path d="M60.8097 20.4545C60.8097 21.8523 60.554 23.054 60.0426 24.0597C59.5313 25.0611 58.8303 25.8324 57.9396 26.3736C57.0533 26.9105 56.0455 27.179 54.9162 27.179C53.7827 27.179 52.7706 26.9105 51.88 26.3736C50.9936 25.8324 50.2947 25.0589 49.7834 24.0533C49.272 23.0476 49.0163 21.848 49.0163 20.4545C49.0163 19.0568 49.272 17.8572 49.7834 16.8558C50.2947 15.8501 50.9936 15.0788 51.88 14.5419C52.7706 14.0007 53.7827 13.7301 54.9162 13.7301C56.0455 13.7301 57.0533 14.0007 57.9396 14.5419C58.8303 15.0788 59.5313 15.8501 60.0426 16.8558C60.554 17.8572 60.8097 19.0568 60.8097 20.4545ZM58.8537 20.4545C58.8537 19.3892 58.6811 18.4922 58.3359 17.7635C57.995 17.0305 57.5263 16.4766 56.9297 16.1016C56.3374 15.7223 55.6662 15.5327 54.9162 15.5327C54.1619 15.5327 53.4886 15.7223 52.8963 16.1016C52.304 16.4766 51.8352 17.0305 51.4901 17.7635C51.1491 18.4922 50.9787 19.3892 50.9787 20.4545C50.9787 21.5199 51.1491 22.419 51.4901 23.152C51.8352 23.8807 52.304 24.4347 52.8963 24.8139C53.4886 25.1889 54.1619 25.3764 54.9162 25.3764C55.6662 25.3764 56.3374 25.1889 56.9297 24.8139C57.5263 24.4347 57.995 23.8807 58.3359 23.152C58.6811 22.419 58.8537 21.5199 58.8537 20.4545ZM63.1188 30.6818V17.1818H64.9853V18.7734H65.1451C65.2559 18.5689 65.4157 18.3324 65.6245 18.0639C65.8333 17.7955 66.123 17.5611 66.4938 17.3608C66.8645 17.1562 67.3546 17.054 67.964 17.054C68.7566 17.054 69.464 17.2543 70.0861 17.6548C70.7083 18.0554 71.1962 18.6328 71.5499 19.3871C71.9078 20.1413 72.0868 21.049 72.0868 22.1101C72.0868 23.1712 71.91 24.081 71.5563 24.8395C71.2026 25.5937 70.7168 26.1754 70.0989 26.5845C69.481 26.9893 68.7757 27.1918 67.9831 27.1918C67.3865 27.1918 66.8986 27.0916 66.5194 26.8913C66.1444 26.6911 65.8503 26.4567 65.6373 26.1882C65.4242 25.9197 65.2601 25.6811 65.1451 25.4723H65.03V30.6818H63.1188ZM64.9917 22.0909C64.9917 22.7812 65.0918 23.3864 65.2921 23.9062C65.4924 24.4261 65.7821 24.8331 66.1614 25.1271C66.5407 25.4169 67.0051 25.5618 67.5549 25.5618C68.1259 25.5618 68.6032 25.4105 68.9867 25.108C69.3702 24.8011 69.66 24.3857 69.856 23.8615C70.0563 23.3374 70.1564 22.7472 70.1564 22.0909C70.1564 21.4432 70.0584 20.8615 69.8624 20.3459C69.6706 19.8303 69.3809 19.4233 68.9931 19.125C68.6096 18.8267 68.1301 18.6776 67.5549 18.6776C67.0009 18.6776 66.5321 18.8203 66.1486 19.1058C65.7694 19.3913 65.4817 19.7898 65.2857 20.3011C65.0897 20.8125 64.9917 21.4091 64.9917 22.0909ZM78.4597 27.1982C77.4924 27.1982 76.6593 26.9915 75.9604 26.5781C75.2658 26.1605 74.7289 25.5746 74.3496 24.8203C73.9746 24.0618 73.7871 23.1733 73.7871 22.1548C73.7871 21.1491 73.9746 20.2628 74.3496 19.4957C74.7289 18.7287 75.2573 18.13 75.9348 17.6996C76.6167 17.2692 77.4135 17.054 78.3255 17.054C78.8794 17.054 79.4164 17.1456 79.9363 17.3288C80.4561 17.5121 80.9228 17.7997 81.3361 18.1918C81.7495 18.5838 82.0755 19.093 82.3141 19.7195C82.5527 20.3416 82.6721 21.098 82.6721 21.9886V22.6662H74.8674V21.2344H80.7992C80.7992 20.7315 80.6969 20.2862 80.4924 19.8984C80.2878 19.5064 80.0002 19.1974 79.6294 18.9716C79.263 18.7457 78.8326 18.6328 78.3382 18.6328C77.8013 18.6328 77.3326 18.7649 76.932 19.0291C76.5357 19.2891 76.2289 19.63 76.0115 20.0518C75.7985 20.4695 75.6919 20.9233 75.6919 21.4134V22.532C75.6919 23.1882 75.807 23.7464 76.0371 24.2067C76.2715 24.6669 76.5975 25.0185 77.0151 25.2614C77.4327 25.5 77.9206 25.6193 78.4789 25.6193C78.8411 25.6193 79.1713 25.5682 79.4696 25.4659C79.7679 25.3594 80.0257 25.2017 80.2431 24.9929C80.4604 24.7841 80.6266 24.5263 80.7417 24.2195L82.5506 24.5455C82.4057 25.0781 82.1458 25.5447 81.7708 25.9453C81.4 26.3416 80.9334 26.6506 80.3709 26.8722C79.8127 27.0895 79.1756 27.1982 78.4597 27.1982ZM86.7038 21.1705V27H84.7926V17.1818H86.6271V18.7798H86.7486C86.9744 18.2599 87.3281 17.8423 87.8097 17.527C88.2955 17.2116 88.907 17.054 89.6442 17.054C90.3132 17.054 90.8991 17.1946 91.402 17.4759C91.9048 17.7528 92.2947 18.1662 92.5717 18.7159C92.8487 19.2656 92.9872 19.9453 92.9872 20.755V27H91.076V20.9851C91.076 20.2734 90.8906 19.7173 90.5199 19.3168C90.1491 18.9119 89.6399 18.7095 88.9922 18.7095C88.549 18.7095 88.1548 18.8054 87.8097 18.9972C87.4688 19.1889 87.1982 19.4702 86.9979 19.8409C86.8018 20.2074 86.7038 20.6506 86.7038 21.1705ZM95.7038 27V13.9091H100.37C101.388 13.9091 102.232 14.0945 102.901 14.4652C103.57 14.8359 104.071 15.343 104.403 15.9865C104.736 16.6257 104.902 17.3459 104.902 18.147C104.902 18.9524 104.734 19.6768 104.397 20.3203C104.065 20.9595 103.562 21.4666 102.888 21.8416C102.219 22.2124 101.378 22.3977 100.364 22.3977H97.1548V20.723H100.185C100.828 20.723 101.35 20.6122 101.751 20.3906C102.151 20.1648 102.445 19.858 102.633 19.4702C102.82 19.0824 102.914 18.6413 102.914 18.147C102.914 17.6527 102.82 17.2138 102.633 16.8303C102.445 16.4467 102.149 16.1463 101.744 15.929C101.344 15.7116 100.815 15.603 100.159 15.603H97.679V27H95.7038ZM111.077 27.1982C110.156 27.1982 109.353 26.9872 108.667 26.5653C107.981 26.1435 107.448 25.5533 107.069 24.7947C106.69 24.0362 106.5 23.1499 106.5 22.1357C106.5 21.1172 106.69 20.2266 107.069 19.4638C107.448 18.701 107.981 18.1087 108.667 17.6868C109.353 17.2649 110.156 17.054 111.077 17.054C111.997 17.054 112.8 17.2649 113.487 17.6868C114.173 18.1087 114.705 18.701 115.085 19.4638C115.464 20.2266 115.653 21.1172 115.653 22.1357C115.653 23.1499 115.464 24.0362 115.085 24.7947C114.705 25.5533 114.173 26.1435 113.487 26.5653C112.8 26.9872 111.997 27.1982 111.077 27.1982ZM111.083 25.5938C111.68 25.5938 112.174 25.4361 112.566 25.1207C112.958 24.8054 113.248 24.3857 113.435 23.8615C113.627 23.3374 113.723 22.7599 113.723 22.1293C113.723 21.5028 113.627 20.9276 113.435 20.4034C113.248 19.875 112.958 19.451 112.566 19.1314C112.174 18.8118 111.68 18.652 111.083 18.652C110.482 18.652 109.984 18.8118 109.587 19.1314C109.195 19.451 108.903 19.875 108.712 20.4034C108.524 20.9276 108.43 21.5028 108.43 22.1293C108.43 22.7599 108.524 23.3374 108.712 23.8615C108.903 24.3857 109.195 24.8054 109.587 25.1207C109.984 25.4361 110.482 25.5938 111.083 25.5938ZM119.698 13.9091V27H117.787V13.9091H119.698ZM122.269 27V17.1818H124.18V27H122.269ZM123.234 15.6669C122.902 15.6669 122.616 15.5561 122.378 15.3345C122.143 15.1087 122.026 14.8402 122.026 14.5291C122.026 14.2138 122.143 13.9453 122.378 13.7237C122.616 13.4979 122.902 13.3849 123.234 13.3849C123.567 13.3849 123.85 13.4979 124.085 13.7237C124.323 13.9453 124.442 14.2138 124.442 14.5291C124.442 14.8402 124.323 15.1087 124.085 15.3345C123.85 15.5561 123.567 15.6669 123.234 15.6669ZM130.887 27.1982C129.937 27.1982 129.119 26.983 128.433 26.5526C127.751 26.1179 127.227 25.5192 126.86 24.7564C126.494 23.9936 126.311 23.12 126.311 22.1357C126.311 21.1385 126.498 20.2585 126.873 19.4957C127.248 18.7287 127.776 18.13 128.458 17.6996C129.14 17.2692 129.943 17.054 130.868 17.054C131.614 17.054 132.279 17.1925 132.862 17.4695C133.446 17.7422 133.917 18.1257 134.275 18.62C134.637 19.1143 134.852 19.6918 134.921 20.3523H133.061C132.958 19.892 132.724 19.4957 132.357 19.1634C131.995 18.831 131.509 18.6648 130.9 18.6648C130.367 18.6648 129.901 18.8054 129.5 19.0866C129.104 19.3636 128.795 19.7599 128.573 20.2756C128.352 20.7869 128.241 21.392 128.241 22.0909C128.241 22.8068 128.35 23.4247 128.567 23.9446C128.784 24.4645 129.091 24.8672 129.487 25.1527C129.888 25.4382 130.359 25.581 130.9 25.581C131.262 25.581 131.59 25.5149 131.884 25.3828C132.183 25.2464 132.432 25.0526 132.632 24.8011C132.837 24.5497 132.98 24.2472 133.061 23.8935H134.921C134.852 24.5284 134.646 25.0952 134.301 25.5938C133.955 26.0923 133.493 26.4844 132.914 26.7699C132.338 27.0554 131.663 27.1982 130.887 27.1982ZM138.173 30.6818C137.887 30.6818 137.627 30.6584 137.393 30.6115C137.158 30.5689 136.984 30.522 136.869 30.4709L137.329 28.9048C137.678 28.9986 137.989 29.0391 138.262 29.0263C138.535 29.0135 138.776 28.9112 138.984 28.7195C139.197 28.5277 139.385 28.2145 139.547 27.7798L139.783 27.1278L136.191 17.1818H138.237L140.723 24.8011H140.825L143.312 17.1818H145.364L141.317 28.3104C141.13 28.8217 140.891 29.2543 140.602 29.608C140.312 29.9659 139.967 30.2344 139.566 30.4134C139.165 30.5923 138.701 30.6818 138.173 30.6818Z" fill="#222222"/>
</svg>
